<svg width="42" height="42" viewBox="0 0 42 42" fill="none" xmlns="http://www.w3.org/2000/svg">
<g clip-path="url(#clip0_2563_51308)">
<path d="M38.3354 16.1973H26.6045C26.561 16.9821 26.4737 17.7672 26.3429 18.552H38.3355C39.0768 18.552 39.6438 19.1625 39.6438 19.8604V37.7402C39.6438 38.4815 39.0333 39.0486 38.3355 39.0486H15.4405C14.6992 39.0486 14.1322 38.4381 14.1322 37.7402V29.4108C13.7398 29.4543 13.3474 29.4543 12.9111 29.4543C12.5187 29.4543 12.1263 29.4543 11.7773 29.4108V37.7402C11.7773 39.7464 13.4346 41.4033 15.4405 41.4033H38.3354C40.3416 41.4033 41.9985 39.7461 41.9985 37.7402V19.8604C41.9985 17.8545 40.3413 16.1973 38.3354 16.1973Z" fill="#25BF7A"/>
<path d="M18.1892 30.2822C17.8403 30.2822 17.5352 30.5876 17.5352 30.9362V35.3845C17.5352 35.7334 17.8406 36.0385 18.1892 36.0385H21.2418C21.5907 36.0385 21.8958 35.7331 21.8958 35.3845L21.8961 30.9366C21.8961 30.5876 21.5907 30.2825 21.2421 30.2825L18.1892 30.2822Z" fill="#25BF7A"/>
<path d="M24.7305 26.5759V35.3414C24.7305 35.6903 25.0359 35.9954 25.3845 35.9954H28.4371C28.786 35.9954 29.0911 35.69 29.0911 35.3414L29.0914 26.5759C29.0914 26.227 28.786 25.9219 28.4374 25.9219H25.3848C24.9921 25.9654 24.7305 26.227 24.7305 26.5759Z" fill="#25BF7A"/>
<path d="M35.5422 35.9953C35.8911 35.9953 36.1962 35.6899 36.1962 35.3413L36.1965 22.2585C36.1965 21.9096 35.8911 21.6045 35.5425 21.6045H32.49C32.141 21.6045 31.8359 21.9099 31.8359 22.2585V35.3849C31.8359 35.7339 32.1414 36.039 32.49 36.039L35.5422 36.0393L35.5422 35.9953Z" fill="#25BF7A"/>
<path d="M24.5113 15.8478C24.5113 13.6673 23.9008 11.6612 22.8541 9.91693L21.2406 11.5742C21.8947 12.8387 22.2873 14.2779 22.2873 15.8043C22.2873 20.95 18.1007 25.1367 12.9985 25.1367C7.85278 25.1367 3.66613 20.95 3.66613 15.8043C3.66613 10.6585 7.85278 6.47187 12.9985 6.47187C14.525 6.47187 16.0077 6.86428 17.2722 7.51857L18.9294 5.86134C17.1852 4.81463 15.179 4.2041 12.9985 4.2041C6.58796 4.2041 1.39844 9.3937 1.39844 15.8042C1.39844 22.2147 6.58803 27.4043 12.9985 27.4043C19.3221 27.4478 24.5113 22.2582 24.5113 15.8478Z" fill="#25BF7A"/>
<path d="M12.954 10.8769C13.2594 10.8769 13.521 10.9204 13.7827 10.9642L15.6143 9.13259C14.7856 8.78368 13.87 8.60938 12.9541 8.60938C8.98555 8.60938 5.71484 11.8365 5.71484 15.8048C5.71484 19.7733 8.94202 23.044 12.9541 23.044C16.9226 23.044 20.1495 19.8168 20.1495 15.8048C20.1495 14.8454 19.9752 13.9732 19.6263 13.1446L17.7947 14.9762C17.8382 15.2378 17.882 15.5432 17.882 15.8048C17.882 18.5523 15.658 20.7763 12.954 20.7763C10.2503 20.7763 7.98256 18.5523 7.98256 15.8048C7.98256 13.0574 10.2065 10.8769 12.954 10.8769Z" fill="#25BF7A"/>
<path d="M12.9555 12.9697C11.3856 12.9697 10.1211 14.2342 10.1211 15.8041C10.1211 17.3741 11.3856 18.6386 12.9555 18.6386C14.5255 18.6386 15.79 17.3741 15.79 15.8041C15.79 15.4552 15.7027 15.1063 15.5719 14.7574L23.2471 7.08226L25.6021 7.08257C25.8202 7.08257 26.0384 6.99526 26.2127 6.82096L28.5674 4.46621C28.829 4.2046 28.8728 3.85569 28.7417 3.55025C28.6109 3.24484 28.3055 3.02703 27.9569 3.02703H25.6891L25.6894 0.846253C25.6894 0.497339 25.4713 0.192237 25.1662 0.0614402C24.8608 -0.0693647 24.4684 0.0179406 24.2503 0.235745L21.8955 2.5905C21.7647 2.72161 21.6774 2.93941 21.6774 3.15751V5.51226L14.0022 13.1877C13.6533 13.0569 13.3044 12.9696 12.9555 12.9696L12.9555 12.9697Z" fill="#25BF7A"/>
</g>
<defs>
<clipPath id="clip0_2563_51308">
<rect width="42" height="42" fill="white"/>
</clipPath>
</defs>
</svg>
