<svg width="42" height="42" viewBox="0 0 42 42" fill="none" xmlns="http://www.w3.org/2000/svg">
<path d="M29.62 12.5282C29.9928 13.6929 29.3405 14.9446 28.2158 15.4265L19.3783 19.21C20.6369 18.6713 22.1061 19.3204 22.5339 20.6563C22.907 21.8211 22.2547 23.0731 21.13 23.5546L20.2272 23.941C21.4861 23.4023 22.9557 24.0506 23.3835 25.3869C23.756 26.552 23.104 27.8036 21.9793 28.2852L21.0765 28.6716C22.3357 28.1325 23.805 28.7815 24.2324 30.1179C24.6049 31.2826 23.9533 32.5342 22.829 33.0157L20.4089 34.0522C20.3643 34.0712 20.3182 34.0872 20.2718 34.1002L7.07253 37.7236C6.04595 38.006 4.96847 37.4866 4.54886 36.508L0.172328 26.2943C-0.197863 25.4309 0.0418677 24.4266 0.761813 23.8234L2.75369 22.1537C3.00383 21.9442 3.2023 21.68 3.33426 21.381L7.73125 11.4174C8.21035 10.1289 9.6785 9.47838 10.9794 10.0442C12.116 10.5387 12.6467 11.8616 12.2951 13.0501L10.9073 17.7428L26.4643 11.0822C27.7232 10.5431 29.1925 11.1922 29.6203 12.5281L29.62 12.5282ZM37.7684 12.6601C40.1018 12.6601 42 10.7628 42 8.42997C42 6.09762 40.1018 4.2002 37.7684 4.2002C35.4346 4.2002 33.5364 6.09752 33.5364 8.42997C33.5364 10.7627 35.4345 12.6601 37.7684 12.6601ZM42 19.703C42 22.0354 40.1018 23.9328 37.7684 23.9328C35.4346 23.9328 33.5364 22.0355 33.5364 19.703C33.5364 17.3706 35.4345 15.4733 37.7684 15.4733C40.1015 15.4729 42 17.3706 42 19.703ZM40.4014 19.703C40.4014 18.2515 39.2202 17.0708 37.7684 17.0708C36.3162 17.0708 35.135 18.2515 35.135 19.703C35.135 21.1542 36.3162 22.3349 37.7684 22.3349C39.2202 22.3349 40.4014 21.1542 40.4014 19.703ZM42 30.9753C42 33.3081 40.1018 35.2055 37.7684 35.2055C35.4346 35.2055 33.5364 33.3082 33.5364 30.9753C33.5364 28.643 35.4345 26.7456 37.7684 26.7456C40.1015 26.7456 42 28.6433 42 30.9753ZM40.4014 30.9753C40.4014 29.5242 39.2202 28.3435 37.7684 28.3435C36.3162 28.3435 35.135 29.5242 35.135 30.9753C35.135 32.4269 36.3162 33.6076 37.7684 33.6076C39.2202 33.608 40.4014 32.4273 40.4014 30.9753Z" fill="#25BF7A"/>
</svg>
