<svg width="42" height="42" viewBox="0 0 42 42" fill="none" xmlns="http://www.w3.org/2000/svg">
<g clip-path="url(#clip0_2563_51314)">
<path d="M29.7523 13.9197C29.7523 11.0551 27.4116 8.72461 24.5345 8.72461C21.6572 8.72492 19.3164 11.0551 19.3164 13.9197C19.3164 16.7843 21.6568 19.1145 24.5342 19.1145C27.4113 19.1145 29.7523 16.784 29.7523 13.9197ZM21.9413 13.9197C21.9413 12.5028 23.1046 11.3495 24.5342 11.3495C25.9639 11.3495 27.1271 12.5025 27.1271 13.9197C27.1271 15.3369 25.9639 16.4899 24.5342 16.4899C23.1046 16.4899 21.9413 15.3366 21.9413 13.9197Z" fill="#25BF7A"/>
<path d="M7.07422 3.03345V15.556C7.07422 16.2807 7.66159 16.8684 8.38656 16.8684C9.1112 16.8684 9.6989 16.2807 9.6989 15.556L9.69921 12.3848C13.1608 11.827 15.9013 9.10246 16.465 5.65853H32.6117C33.1751 9.10246 35.9155 11.8273 39.3775 12.3848V15.454C35.9152 16.0118 33.1744 18.7369 32.6113 22.1815H24.7088C23.9841 22.1815 23.3964 22.7689 23.3964 23.4938C23.3964 24.2188 23.9841 24.8062 24.7088 24.8062L42.0021 24.8065V3.0332L7.07422 3.03345ZM9.69914 9.70432V5.65845H13.7821C13.2896 7.65123 11.7081 9.21912 9.69914 9.70432ZM35.2941 5.65845H39.3774V9.70432C37.3684 9.21906 35.7866 7.65115 35.2941 5.65845ZM35.2938 22.1812C35.7859 20.1882 37.3681 18.6197 39.3771 18.1344V22.1812H35.2938Z" fill="#25BF7A"/>
<path d="M11.1631 18.9443C5.00808 18.9443 0 23.9515 0 30.1067C0 36.2618 5.00776 41.269 11.1623 41.269C17.3174 41.269 22.3247 36.2616 22.3247 30.1067C22.325 23.9516 17.3176 18.9443 11.1623 18.9443H11.1631ZM11.1631 38.6442C6.45548 38.6442 2.62564 34.8143 2.62564 30.1067C2.62564 25.399 6.4558 21.5692 11.1631 21.5692C15.8708 21.5692 19.7007 25.399 19.7007 30.1067C19.701 34.814 15.8708 38.6442 11.1631 38.6442Z" fill="#25BF7A"/>
<path d="M14.8512 29.3651L12.4753 31.6436V25.5106C12.4753 24.7856 11.8876 24.1982 11.1629 24.1982C10.438 24.1982 9.85058 24.7856 9.85058 25.5106V31.6264L7.47125 29.3616C6.94614 28.862 6.11532 28.8826 5.61577 29.4077C5.11587 29.9328 5.13642 30.7636 5.66184 31.2632L10.1737 35.5572C10.3673 35.7816 10.6325 35.9404 10.937 35.9936C10.9438 35.9948 10.9506 35.9945 10.9575 35.9958C11.025 36.0067 11.0929 36.0166 11.1639 36.0166C11.1667 36.0166 11.1695 36.0157 11.1723 36.0157C11.1754 36.0157 11.1782 36.0166 11.1816 36.0166C11.5091 36.0166 11.8362 35.8949 12.0902 35.6512L16.6693 31.2598C17.1926 30.758 17.2097 29.9272 16.7082 29.4043C16.2049 28.8811 15.3741 28.8633 14.8512 29.3651Z" fill="#25BF7A"/>
</g>
<defs>
<clipPath id="clip0_2563_51314">
<rect width="42" height="42" fill="white"/>
</clipPath>
</defs>
</svg>
