<svg width="42" height="42" viewBox="0 0 42 42" fill="none" xmlns="http://www.w3.org/2000/svg">
<path fill-rule="evenodd" clip-rule="evenodd" d="M33.5896 19.2297H31.8569C31.0931 14.5989 27.4293 10.934 22.7989 10.1702V8.44178C28.3843 9.23325 32.7949 13.6441 33.5898 19.2303L33.5896 19.2297ZM22.7987 31.8802C27.4292 31.1155 31.0929 27.4523 31.8567 22.8215H33.5893C32.7948 28.4032 28.384 32.8182 22.7984 33.6084L22.7987 31.8802ZM10.1489 22.8215C10.9115 27.4523 14.5786 31.1156 19.2069 31.8802V33.6086C13.6257 32.8184 9.21243 28.4033 8.42065 22.8217L10.1489 22.8215ZM19.2069 10.1702C14.5785 10.934 10.9111 14.5993 10.1489 19.2297H8.42042C9.21282 13.6438 13.6258 9.23301 19.2066 8.44124L19.2069 10.1702ZM29.948 22.0655C29.3628 22.0655 28.8859 21.5885 28.8859 21C28.8859 20.4127 29.3629 19.9357 29.948 19.9357H36.887C36.3592 11.9993 30.0003 5.63869 22.0633 5.11058V12.0489C22.0633 12.6343 21.582 13.1113 20.9969 13.1113C20.4084 13.1113 19.9314 12.6343 19.9314 12.0489V5.11058C11.9949 5.63862 5.63192 11.9999 5.1077 19.9357H12.0467C12.6351 19.9357 13.1088 20.4127 13.1088 21C13.1088 21.5885 12.6351 22.0655 12.0467 22.0655H5.1077C5.63149 30.0042 11.9944 36.3656 19.9314 36.8929V29.9534C19.9314 29.3661 20.4084 28.887 20.9969 28.887C21.582 28.887 22.0633 29.3661 22.0633 29.9534V36.8929C29.9997 36.3658 36.3588 30.0045 36.887 22.0655H29.948ZM39.5341 19.9357C40.1205 19.9357 40.5984 20.4127 40.5984 21C40.5984 21.5885 40.1205 22.0655 39.5341 22.0655H38.8031C38.2721 31.0713 31.0663 38.2782 22.063 38.8094V39.537C22.063 40.1255 21.5818 40.6004 20.9966 40.6004C20.4081 40.6004 19.9311 40.1255 19.9311 39.537V38.8094C10.926 38.278 3.71833 31.0712 3.18944 22.0655H2.46057C1.8742 22.0655 1.39844 21.5885 1.39844 21C1.39844 20.4127 1.87422 19.9357 2.46057 19.9357H3.18944C3.71839 10.9314 10.9262 3.72537 19.9311 3.1926V2.46586C19.9311 1.88071 20.4081 1.40039 20.9966 1.40039C21.5818 1.40039 22.063 1.88073 22.063 2.46586V3.1926C31.0658 3.72489 38.2719 10.9308 38.8031 19.9357H39.5341ZM27.771 20.9809C27.7795 24.7227 24.7571 27.7621 21.0137 27.7727C17.2777 27.7833 14.2352 24.7598 14.2246 21.0212C14.2149 17.2806 17.2394 14.2403 20.9764 14.2297C24.7167 14.2179 27.7571 17.2415 27.771 20.9809ZM18.7519 22.6452L18.3952 23.8662C18.847 24.0852 19.622 24.2815 20.4192 24.3113V25.3036H21.5968V24.2295C22.9656 24.0314 23.7066 23.2412 23.7066 22.314C23.7066 21.3679 23.1463 20.7927 21.7284 20.3577C20.7072 20.0335 20.2898 19.8045 20.2898 19.4703C20.2898 19.1792 20.5368 18.8763 21.3109 18.8763C22.1674 18.8763 22.7267 19.1194 23.0284 19.2424L23.3842 18.066C22.9655 17.898 22.4305 17.7431 21.646 17.7221V16.8049H20.4784V17.7941C19.2057 18.0022 18.4683 18.7201 18.4683 19.6465C18.4683 20.6588 19.336 21.1798 20.6099 21.5538C21.502 21.8139 21.8839 22.063 21.8839 22.4601C21.8839 22.866 21.4196 23.106 20.729 23.106C19.9537 23.106 19.2515 22.8851 18.7517 22.6451L18.7519 22.6452Z" fill="#25BF7A"/>
</svg>
