<svg width="80" height="32" viewBox="0 0 80 32" fill="none" xmlns="http://www.w3.org/2000/svg">
<g clip-path="url(#clip0)">
<path d="M38.7634 11.2518C38.2335 11.226 37.7056 11.3343 37.2287 11.5664C36.2647 12.0078 35.5375 12.7301 34.9033 13.8895L34.6919 14.2528L34.7173 13.6065C34.732 13.2517 34.7574 12.5886 34.7722 12.1282L34.7976 11.3003H34.6602C34.4826 11.3003 28.9101 12.4112 28.741 12.4809C28.631 12.5252 28.6141 12.5738 28.6141 12.842C28.6141 13.1102 28.6289 13.1546 28.741 13.1778L29.3096 13.2877C29.8022 13.3827 29.9438 13.4587 30.1552 13.7269C30.5294 14.2232 30.6076 15.0976 30.6034 18.7955C30.6034 21.8219 30.5379 23.3277 30.392 23.8008C30.2144 24.3773 29.9016 24.673 29.3583 24.7744L28.8403 24.8757L28.6437 24.918L28.6268 25.3298C28.6163 25.6022 28.6268 25.7311 28.6839 25.7648C28.741 25.7986 30.6288 25.805 32.9119 25.7986L37.0722 25.7839L37.0892 25.3488C37.1092 25.2034 37.0998 25.0555 37.0617 24.9137C36.5632 24.8865 36.068 24.8159 35.5819 24.7026C35.1126 24.5061 34.8864 24.0859 34.7891 23.2242C34.6729 22.2211 34.6052 19.729 34.6369 17.6847C34.6686 15.6403 34.6686 15.6129 34.7976 15.4735C35.0999 15.1504 35.8546 14.899 36.548 14.899C37.1449 14.9077 37.7319 15.0521 38.2645 15.3214C38.4506 15.4239 38.6497 15.5007 38.8565 15.5495C38.9326 15.5199 40.2982 11.917 40.2982 11.7481C40.313 11.5052 39.5372 11.2518 38.7634 11.2518Z" fill="#C2C2C2"/>
<path d="M28.6227 17.5158C28.3288 15.0237 27.2697 13.199 25.5235 12.1726C23.5829 11.0301 20.6339 10.9646 18.5473 12.0163C16.9816 12.837 15.7984 14.2358 15.2495 15.9149C14.6829 17.798 14.6829 19.8059 15.2495 21.6889C15.547 22.714 16.0997 23.6469 16.8561 24.4006C17.8014 25.3172 19.0171 25.9051 20.3231 26.0775C21.1672 26.1474 22.0157 26.1474 22.8599 26.0775C23.1701 26.0243 23.4771 25.9538 23.7795 25.8663C26.2507 25.1503 27.9377 23.2517 28.517 20.5358C28.668 19.5365 28.7035 18.5232 28.6227 17.5158ZM22.3631 24.9856C20.8262 25.4418 19.7269 23.9782 19.2999 20.9138C19.1624 19.3096 19.1624 17.6966 19.2999 16.0923C19.6022 13.6298 20.3569 12.3775 21.564 12.3754C22.1031 12.3754 22.4096 12.5063 22.8324 12.9329C23.8387 13.9445 24.3122 15.8896 24.3122 18.9202C24.3122 21.3447 24.0649 22.8737 23.5237 23.9064C23.2531 24.4069 22.7605 24.8673 22.3631 24.9856Z" fill="#C2C2C2"/>
<path d="M8.32392 7.60034H10.0933C12.127 7.60034 12.461 7.64258 13.1798 7.99527C14.2241 8.50846 14.9873 9.52007 15.6532 11.2793C15.9238 11.9952 15.9195 11.9931 16.5326 11.8136L16.9321 11.6911L16.8962 9.0998C16.8751 7.67426 16.8433 6.405 16.8222 6.28251L16.7863 6.05653L9.02789 6.04175C4.76183 6.04175 1.18706 6.04175 1.08559 6.05864L0.888988 6.09032L0.9059 6.55072L0.920698 7.01112L1.52319 7.08081C2.27789 7.1674 2.73662 7.37859 3.00299 7.78408C3.61605 8.67531 3.72598 9.89599 3.72598 15.6615C3.72598 21.8072 3.59702 23.3003 3.0051 24.0754C2.7028 24.4851 2.45546 24.6076 1.76418 24.7343C0.86362 24.9075 0.888988 24.88 0.888988 25.3468C0.888988 25.6072 0.912242 25.748 0.95875 25.7691C1.06022 25.8093 10.9854 25.8135 11.0911 25.7691C11.1968 25.7248 11.218 24.9856 11.0806 24.9244C10.8363 24.8579 10.5876 24.8085 10.3365 24.7765C10.0401 24.7383 9.74792 24.6732 9.46337 24.5822C8.81437 24.2992 8.45288 23.5263 8.31547 22.1029C8.21822 21.0891 8.14423 19.2201 8.14423 17.8389V16.5718L8.74884 16.5908C10.0342 16.6288 10.7001 16.6985 10.9685 16.8167C11.552 17.0744 12.0255 17.7924 12.2686 18.7935L12.3976 19.3278L12.8563 19.3447L13.3172 19.3616V12.6035L12.8585 12.6204L12.3976 12.6373L12.2644 13.1695C12.0044 14.2022 11.5816 14.8379 10.958 15.1251C10.7043 15.2434 10.5352 15.275 9.91788 15.3109C9.51411 15.3363 8.94967 15.3574 8.66428 15.3574H8.14423V13.6805C8.14423 12.0058 8.23514 8.44933 8.29221 7.89601L8.32392 7.60034Z" fill="#C2C2C2"/>
<path d="M78.737 19.505C78.2656 18.561 77.3946 17.9126 75.566 17.1523C74.0862 16.5314 73.3294 16.0964 72.8728 15.6022C72.5029 15.1967 72.395 14.8693 72.431 14.2653C72.4304 13.791 72.6173 13.3356 72.951 12.9982C73.4013 12.5188 74.0207 12.3498 74.7606 12.5061C75.9762 12.7638 76.7562 13.6043 77.4264 15.3804C77.6673 16.014 77.6948 16.0351 78.124 15.8746L78.3967 15.7732V15.0425C78.3967 14.6412 78.3713 13.7986 78.3502 13.1692L78.31 12.0246L78.0986 11.938C76.993 11.4692 74.879 11.1798 73.4943 11.3023C71.9236 11.4459 70.7715 11.9359 69.8857 12.8609C69.4606 13.2837 69.1323 13.7937 68.9235 14.3555C68.7148 14.9174 68.6305 15.5178 68.6765 16.1154C68.7357 17.1713 69.0465 17.9211 69.6955 18.5842C70.2958 19.1967 70.799 19.4881 72.2471 20.0625C74.583 20.9749 75.2067 21.5155 75.1961 22.6391C75.2097 23.0784 75.0769 23.5098 74.8187 23.8656C74.5604 24.2214 74.1913 24.4816 73.7691 24.6053C73.2421 24.7217 72.6959 24.7217 72.1688 24.6053C71.0083 24.299 70.1204 23.2959 69.3614 21.4374L69.1712 20.9432H68.9429C68.8107 20.949 68.6805 20.9775 68.5581 21.0277L68.4038 21.1016L68.4186 21.9147C68.4186 22.3624 68.4482 23.3064 68.4672 24.0139L68.5032 25.2959L68.7632 25.4078C69.2938 25.6359 70.8878 25.9843 71.8898 26.0921C72.0124 26.1047 72.6973 26.1089 73.4076 26.0921C74.6422 26.0794 74.731 26.0709 75.3525 25.9083C77.1854 25.431 78.3713 24.411 78.8956 22.8608C79.0584 22.3856 79.0795 22.2399 79.107 21.5324C79.1324 20.6074 79.0457 20.1196 78.737 19.505Z" fill="#C2C2C2"/>
<path d="M64.5669 11.8136C63.0216 11.0406 60.6349 11.0976 58.8908 11.9466C57.2377 12.7513 56.0982 14.0944 55.464 15.9909C55.1321 16.9793 55.0285 17.7734 55.0624 19.0532C55.0567 19.5909 55.1042 20.1278 55.204 20.6562C55.853 23.5685 57.8507 25.541 60.6412 26.0479C61.5144 26.1566 62.3978 26.1566 63.271 26.0479C64.1768 25.886 65.043 25.5519 65.8226 25.0637C66.6111 24.5336 67.4166 23.7353 67.4166 23.4882C67.4166 23.3362 67.146 22.9877 67.0297 22.9877C66.8562 23.0483 66.6925 23.1336 66.5435 23.2411C65.7925 23.7351 64.905 23.9804 64.0067 23.9423C62.5945 23.9423 61.7003 23.5917 60.8019 22.6751C60.4869 22.3842 60.2263 22.0395 60.0324 21.6572C59.5637 20.7192 59.313 19.6876 59.2988 18.6393L59.2819 18.1472L63.4634 18.1493L67.6237 18.1345L67.6428 17.8536C67.646 17.5538 67.6312 17.2541 67.5984 16.9561C67.3278 14.4281 66.3046 12.69 64.5669 11.8136ZM60.3748 16.9413L59.3178 16.9582V16.7322C59.3315 16.4867 59.3583 16.2421 59.3982 15.9994C59.7491 13.7354 60.5947 12.3796 61.6517 12.3774C62.6241 12.3774 63.2224 13.7143 63.3429 16.162L63.3788 16.8568L62.4064 16.8822C61.8694 16.9096 60.9541 16.9328 60.3748 16.9413Z" fill="#C2C2C2"/>
<path d="M49.4898 11.5516C49.0713 11.4783 48.645 11.4585 48.2214 11.4925C47.4065 11.4912 46.6009 11.6663 45.8601 12.0057C45.6191 12.1155 45.4098 12.2063 45.3929 12.2063C45.376 12.2063 45.3802 10.7407 45.3929 8.94765C45.4162 6.42391 45.4098 5.68896 45.357 5.68896C45.1752 5.68896 39.4378 6.78082 39.368 6.83151C39.2983 6.8822 39.3004 6.9899 39.3109 7.17364C39.33 7.49254 39.2919 7.4672 39.9938 7.62348C40.1858 7.66614 40.3704 7.73733 40.5413 7.83467C40.7738 8.00151 40.9641 8.36054 41.1036 8.87796C41.2093 9.28344 41.2241 9.57489 41.2727 12.3267C41.3235 15.1377 41.3129 18.0289 41.2368 23.3087L41.2051 25.5072L41.6152 25.6001C42.2113 25.7353 43.9152 26.0225 44.4733 26.0753C45.5834 26.1563 46.6981 26.15 47.8071 26.0563C50.4433 25.6592 52.4325 24.1302 53.3585 21.7881C53.6331 21.0496 53.8225 20.2823 53.9229 19.5009C54.0129 18.4445 53.9781 17.3813 53.8193 16.333C53.2591 13.7713 51.6567 11.9994 49.4898 11.5516ZM45.4944 24.8102C45.4204 24.6202 45.3358 18.0352 45.3718 15.4059L45.3993 13.3531L45.7713 13.2433C46.0584 13.1647 46.3553 13.1277 46.6529 13.1335C46.9804 13.1006 47.3097 13.1747 47.5915 13.3447C48.5576 13.8219 49.2193 15.0088 49.5279 16.8124C49.6458 17.9042 49.6543 19.0051 49.5533 20.0986C49.3017 22.0626 48.659 23.6445 47.805 24.4132C47.5133 24.6937 47.1459 24.8831 46.748 24.9581C46.4445 25.0154 46.1335 25.0204 45.8284 24.9729C45.5789 24.956 45.5282 24.9306 45.4944 24.8102Z" fill="#C2C2C2"/>
</g>
<defs>
<clipPath id="clip0">
<rect width="78.2222" height="32" fill="white" transform="translate(0.888916)"/>
</clipPath>
</defs>
</svg>
